# xmcd
#
# Track frame offsets:
#  150
#  11362
#  23465
#  34817
#  49170
#  60437
#  74032
#  84520
#  93945
#  102242
#  113350
#  128320
#  140170
#  151477
#  162967
#  173050
#
# Disc length: 2501 seconds
#
# Revision: 0
# Processed by: cddbd v1.4PL0 Copyright (c) Steve Scherf et al.
# Submitted via: AltoMP3_Maker 3.0
#
DISCID=bf09c310
DTITLE=Don Gibson - The Very Best of Don Gibson
DYEAR=1900
DGENRE=
TTITLE0=Oh Lonesome Me
TTITLE1=Bring Back Your Love To Me
TTITLE2=Just One Time
TTITLE3=Touch The Morning
TTITLE4=Sea Of Heartbreak
TTITLE5=One Day At A Time
TTITLE6=Who Cares
TTITLE7=I Need Thee Every Hour
TTITLE8=Blue Blue Day
TTITLE9=I Can Mend Your Broken Heart
TTITLE10=Woman (Sensuous Woman)
TTITLE11=I Can't Stop Loving You
TTITLE12=Country Green
TTITLE13=Give Myself A Party
TTITLE14=Lonesome Number One
TTITLE15=Sweet Dreams
EXTD=
EXTT0=
EXTT1=
EXTT2=
EXTT3=
EXTT4=
EXTT5=
EXTT6=
EXTT7=
EXTT8=
EXTT9=
EXTT10=
EXTT11=
EXTT12=
EXTT13=
EXTT14=
EXTT15=
PLAYORDER=
